<?xml version="1.0" encoding="UTF-8" standalone="no"?>
<!-- Uploaded to: SVG Repo, www.svgrepo.com, Generator: SVG Repo Mixer Tools -->

<svg
   width="800px"
   height="800px"
   viewBox="0 0 24 24"
   fill="none"
   version="1.1"
   id="svg8"
   sodipodi:docname="flashoff.svg"
   inkscape:version="1.4.2 (ebf0e940d0, 2025-05-08)"
   xmlns:inkscape="http://www.inkscape.org/namespaces/inkscape"
   xmlns:sodipodi="http://sodipodi.sourceforge.net/DTD/sodipodi-0.dtd"
   xmlns="http://www.w3.org/2000/svg"
   xmlns:svg="http://www.w3.org/2000/svg">
  <defs
     id="defs8" />
  <sodipodi:namedview
     id="namedview8"
     pagecolor="#505050"
     bordercolor="#eeeeee"
     borderopacity="1"
     inkscape:showpageshadow="0"
     inkscape:pageopacity="0"
     inkscape:pagecheckerboard="0"
     inkscape:deskcolor="#505050"
     inkscape:zoom="0.98875"
     inkscape:cx="399.49431"
     inkscape:cy="400"
     inkscape:window-width="1920"
     inkscape:window-height="1000"
     inkscape:window-x="0"
     inkscape:window-y="0"
     inkscape:window-maximized="1"
     inkscape:current-layer="svg8" />
  <path
     d="M19.5 17.5H4.5"
     stroke="#33363F"
     stroke-linecap="round"
     stroke-linejoin="round"
     id="path1" />
  <path
     d="M7 17.5L8.34705 10.3157C8.43574 9.84274 8.84871 9.5 9.32993 9.5H14.6701C15.1513 9.5 15.5643 9.84274 15.6529 10.3157L17 17.5"
     stroke="#33363F"
     stroke-linecap="round"
     stroke-linejoin="round"
     id="path2" />
  <path
     d="M12.5 11.5H13.5"
     stroke="#33363F"
     stroke-linecap="round"
     stroke-linejoin="round"
     id="path8" />
  <path
     style="fill:#000000;stroke-width:1.01138"
     d="m 142.31927,597.55946 c -4.57408,-2.25448 -7.53756,-6.79933 -8.07403,-12.38253 -0.59222,-6.16337 1.5722,-11.19422 6.4015,-14.87926 l 3.81965,-2.91461 37.69196,-0.29864 37.69197,-0.29864 1.06097,-5.26394 c 0.58353,-2.89517 10.16653,-53.96179 21.29557,-113.48138 11.12902,-59.5196 20.74372,-110.03793 21.366,-112.26296 3.53062,-12.62421 13.10808,-23.72172 25.97517,-30.09772 l 8.65567,-4.28914 h 101.7199 101.71989 l 7.77324,3.71198 c 4.27528,2.04158 9.92492,5.68255 12.55477,8.09102 6.02933,5.5218 12.16622,14.90369 14.08007,21.52517 0.81142,2.80731 10.58965,53.80205 21.72942,113.32165 11.13975,59.51959 20.72989,110.58621 21.3114,113.48138 l 1.05729,5.26394 37.69197,0.29864 37.69196,0.29864 3.7134,2.83357 c 5.24414,4.00163 7.06213,7.99842 6.53416,14.36511 -0.5152,6.2126 -3.35734,10.68886 -8.26556,13.01797 -3.16399,1.50142 -25.18968,1.63978 -257.66846,1.61873 -232.10202,-0.021 -254.49736,-0.1653 -257.52788,-1.65898 z m 404.33054,-31.71495 c 0,-4.09731 -41.64503,-221.91599 -42.88793,-224.3195 -0.8702,-1.68278 -3.06819,-4.1195 -4.88442,-5.41493 l -3.30224,-2.35534 H 400 304.42478 l -3.30224,2.35534 c -1.81623,1.29543 -4.01422,3.73215 -4.88442,5.41493 -1.2429,2.40351 -42.88793,220.22219 -42.88793,224.3195 0,0.69814 47.52371,1.03286 146.64981,1.03286 99.1261,0 146.64981,-0.33472 146.64981,-1.03286 z"
     id="path9"
     transform="scale(0.03)" />
  <path
     style="fill:#000000;stroke-width:1.01138"
     d="m 411.63085,398.52004 c -13.48358,-4.89765 -14.79954,-22.73841 -2.1863,-29.64012 2.7373,-1.4978 6.18267,-1.74971 23.93092,-1.74971 19.09314,0 21.013,0.16434 24.26964,2.07744 10.98098,6.45074 10.98098,21.75848 0,28.20922 -3.18373,1.87027 -5.45268,2.10213 -22.75257,2.32503 -14.77225,0.19033 -20.15175,-0.0922 -23.26169,-1.22186 z"
     id="path15"
     transform="scale(0.03)" />
</svg>
